<svg fill="none" height="512" viewBox="0 0 24 24" width="512" xmlns="http://www.w3.org/2000/svg"><path d="m12 1.25c-5.93706 0-10.75 4.81294-10.75 10.75 0 5.9371 4.81294 10.75 10.75 10.75 5.9371 0 10.75-4.8129 10.75-10.75 0-5.93706-4.8129-10.75-10.75-10.75z" fill="#ffc107"/><path clip-rule="evenodd" d="m13.6966 5.51988c.2651-.31821.7381-.3612 1.0563-.09603l2.7272 2.27273c.1724.1436.2714.3568.2699.58111s-.1033.43618-.2775.5775l-2.7273 2.21251c-.3216.2609-.794.2117-1.0549-.11-.261-.3217-.2118-.794.1099-1.05492l1.0848-.88003h-6.06682c-.58994 0-1.06818.47824-1.06818 1.06815v.9091c0 .4142-.33579.75-.75.75s-.75-.3358-.75-.75v-.9091c0-1.41834 1.14981-2.56815 2.56818-2.56815h6.11032l-1.1359-.94657c-.3182-.26517-.3612-.73809-.096-1.0563z" fill="#fafafa" fill-rule="evenodd"/><path clip-rule="evenodd" d="m10.3195 17.9797c-.2542.3271-.72539.3862-1.05245.132l-2.72727-2.1195c-.18574-.1443-.29299-.3675-.28971-.6027s.11672-.4552.30641-.5943l2.72727-2c.33402-.245.80335-.1728 1.04835.1613.2449.334.1727.8033-.1613 1.0483l-.87982.6452h5.89082c.6829 0 1.0682-.4678 1.0682-.85v-.8c0-.4142.3358-.75.75-.75s.75.3358.75.75v.8c0 1.3851-1.2428 2.35-2.5682 2.35h-5.9945l1.0002.7773c.3271.2542.3861.7254.132 1.0524z" fill="#fafafa" fill-rule="evenodd"/><g fill="#000"><path d="m13.6966 5.51986c.2651-.31821.7381-.3612 1.0563-.09603l2.7272 2.27273c.1724.1436.2714.3568.2699.58111s-.1033.43618-.2775.5775l-2.7273 2.21243c-.3216.261-.794.2118-1.0549-.1099-.261-.3217-.2118-.794.1099-1.05494l1.0848-.88003h-6.06682c-.58994 0-1.06818.47824-1.06818 1.06817v.9091c0 .4142-.33579.75-.75.75s-.75-.3358-.75-.75v-.9091c0-1.41836 1.14981-2.56817 2.56818-2.56817h6.11032l-1.1359-.94656c-.3182-.26518-.3612-.7381-.096-1.05631z"/><path d="m9.26705 18.1117c.32706.2542.79825.1951 1.05245-.132.2541-.327.1951-.7982-.132-1.0524l-1.0002-.7773h5.9945c1.3254 0 2.5682-.9649 2.5682-2.35v-.8c0-.4142-.3358-.75-.75-.75s-.75.3358-.75.75v.8c0 .3822-.3853.85-1.0682.85h-5.89082l.87982-.6452c.334-.2449.4062-.7143.1613-1.0483-.245-.334-.71433-.4063-1.04835-.1613l-2.72727 2c-.18969.1391-.30312.3591-.30641.5943-.00328.2352.10397.4584.28971.6027z"/><path clip-rule="evenodd" d="m1.25 12c0-5.93706 4.81294-10.75 10.75-10.75 5.9371 0 10.75 4.81294 10.75 10.75 0 5.9371-4.8129 10.75-10.75 10.75-5.93706 0-10.75-4.8129-10.75-10.75zm10.75-9.25c-5.10863 0-9.25 4.14137-9.25 9.25 0 5.1086 4.14137 9.25 9.25 9.25 5.1086 0 9.25-4.1414 9.25-9.25 0-5.10863-4.1414-9.25-9.25-9.25z" fill-rule="evenodd"/></g></svg>